<svg width="80" height="80" viewBox="0 0 80 80" fill="none" xmlns="http://www.w3.org/2000/svg">
<circle cx="40" cy="40" r="40" fill="#F2F2F2"/>
<path d="M57.5781 44.7656C57.5781 41.4999 55.6595 38.674 52.8906 37.355V20H22.4219V57.6562H43.5156V60L49.375 57.0703L55.2344 60V50.5002C56.6833 49.0201 57.5781 46.9955 57.5781 44.7656ZM55.2344 44.7656C55.2344 47.9965 52.6059 50.625 49.375 50.625C46.1441 50.625 43.5156 47.9965 43.5156 44.7656C43.5156 41.5347 46.1441 38.9062 49.375 38.9062C52.6059 38.9062 55.2344 41.5347 55.2344 44.7656ZM45.8594 37.355C43.0905 38.674 41.1719 41.4999 41.1719 44.7656C41.1719 46.9955 42.0667 49.0201 43.5156 50.5002V50.625H31.5961C31.2424 49.6274 30.4507 48.8358 29.4531 48.4821V29.1742C30.4507 28.8205 31.2424 28.0289 31.5961 27.0312H43.7164C44.0701 28.0289 44.8621 28.8205 45.8594 29.1742V37.355ZM24.7656 55.3125V22.3438H50.5469V36.6464C50.1639 36.5915 49.7729 36.5625 49.375 36.5625C48.9771 36.5625 48.5861 36.5915 48.2031 36.6464V27.0312H47.0312C46.3852 27.0312 45.8594 26.5054 45.8594 25.8594V24.6875H29.4531V25.8594C29.4531 26.5054 28.9273 27.0312 28.2812 27.0312H27.1094V50.625H28.2812C28.9273 50.625 29.4531 51.1508 29.4531 51.7969V52.9688H43.5156V55.3125H24.7656ZM45.8594 52.1762C46.5881 52.5235 47.3758 52.7658 48.2031 52.8848V55.036L45.8594 56.2079V52.1762ZM50.5469 55.036V52.8845C51.3742 52.7658 52.1619 52.5232 52.8906 52.1762V56.2076L50.5469 55.036Z" fill="#044B89"/>
<path d="M45.8594 44.7656C45.8594 46.7041 47.4365 48.2812 49.375 48.2812C51.3135 48.2812 52.8906 46.7041 52.8906 44.7656C52.8906 42.8271 51.3135 41.25 49.375 41.25C47.4365 41.25 45.8594 42.8271 45.8594 44.7656ZM50.5469 44.7656C50.5469 45.4117 50.0211 45.9375 49.375 45.9375C48.7289 45.9375 48.2031 45.4117 48.2031 44.7656C48.2031 44.1196 48.7289 43.5938 49.375 43.5938C50.0211 43.5938 50.5469 44.1196 50.5469 44.7656Z" fill="#044B89"/>
<path d="M31.7969 31.875H43.5156V34.2188H31.7969V31.875Z" fill="#044B89"/>
<path d="M34.1406 36.5625H41.1719V38.9062H34.1406V36.5625Z" fill="#044B89"/>
</svg>
