<svg width="28" height="29" viewBox="0 0 28 29" fill="none" xmlns="http://www.w3.org/2000/svg">
<path d="M14 28.0312C12.4792 28.0312 11.0052 27.7969 9.57812 27.3281C8.15104 26.8594 6.86458 26.1875 5.71875 25.3125C4.57292 24.4375 3.56771 23.4271 2.70312 22.2812C1.83854 21.1354 1.17188 19.849 0.703125 18.4219C0.234375 16.9948 0 15.5208 0 14C0 12.1042 0.369792 10.2917 1.10938 8.5625C1.84896 6.83333 2.84375 5.34375 4.09375 4.09375C5.34375 2.84375 6.83333 1.84896 8.5625 1.10938C10.2917 0.369792 12.1042 0 14 0C15.8958 0 17.7083 0.369792 19.4375 1.10938C21.1667 1.84896 22.6562 2.84375 23.9062 4.09375C25.1562 5.34375 26.151 6.83333 26.8906 8.5625C27.6302 10.2917 28 12.1042 28 14C28 15.8958 27.6302 17.7083 26.8906 19.4375C26.151 21.1667 25.1562 22.6615 23.9062 23.9219C22.6562 25.1823 21.1667 26.1823 19.4375 26.9219C17.7083 27.6615 15.8958 28.0312 14 28.0312ZM14.6406 7.95312C14.4427 8.15104 14.3438 8.39062 14.3438 8.67188C14.3438 8.95312 14.4375 9.1875 14.625 9.375L18.25 13H7C6.70833 13 6.46875 13.0938 6.28125 13.2812C6.09375 13.4688 6 13.7031 6 13.9844C6 14.2656 6.09375 14.5052 6.28125 14.7031C6.46875 14.901 6.70833 15 7 15H18.3125L14.625 18.6562C14.5417 18.7604 14.474 18.875 14.4219 19C14.3698 19.125 14.3438 19.25 14.3438 19.375C14.3438 19.5 14.3698 19.625 14.4219 19.75C14.474 19.875 14.5469 19.9844 14.6406 20.0781C14.7344 20.1719 14.8438 20.2448 14.9688 20.2969C15.0938 20.349 15.2188 20.375 15.3438 20.375C15.6146 20.375 15.8542 20.2812 16.0625 20.0938L21.9688 14.0312L16.0625 7.96875C15.8542 7.76042 15.6146 7.65625 15.3438 7.65625C15.0729 7.65625 14.8385 7.75521 14.6406 7.95312Z" fill="#044B89"/>
</svg>
