<svg width="80" height="80" viewBox="0 0 80 80" fill="none" xmlns="http://www.w3.org/2000/svg">
<circle cx="40" cy="40" r="40" fill="#F2F2F2"/>
<path d="M60 30H20V44.0625H22.7515L20.6247 46.1893L32.226 57.7902L33.8831 56.1328L37.1976 59.4473L40.0003 56.6449C41.6058 58.2501 42.1405 58.7851 42.4783 59.1226C43.1201 58.4814 44.4449 57.1536 45.788 55.8194L47.7588 57.7902C48.3173 57.2318 58.8019 46.7471 59.3597 46.1893L57.2333 44.0625H60V30ZM23.9395 46.1893L26.066 44.0625H27.4078C27.652 44.3057 27.9892 44.6417 28.3957 45.0476L25.5966 47.8464L23.9395 46.1893ZM27.254 49.5038L30.0543 46.7035C30.5704 47.2189 31.1285 47.7768 31.7123 48.36L28.9114 51.1609L27.254 49.5038ZM32.226 54.4754L30.5685 52.8183L33.3701 50.0168C33.92 50.5661 34.4763 51.1224 35.0278 51.6736L32.226 54.4754ZM37.1976 56.1328L35.5405 54.4754L36.6852 53.3307C37.2659 53.9108 37.8238 54.4687 38.3429 54.9875L37.1976 56.1328ZM49.4037 42.8619L47.7463 44.5193L52.7307 49.5038L51.0733 51.1609L46.0892 46.1765L44.4318 47.8339C45.0394 48.4415 48.7784 52.1805 49.4162 52.8183L47.7588 54.4754L42.7747 49.491L41.1172 51.1484L44.1309 54.162C43.7323 54.5578 43.2623 55.0253 42.4783 55.8081C26.7184 40.0497 29.0808 42.4252 28.3734 41.7188H22.3438V32.3438H34.1406V44.0625H35.3125C38.3655 44.0625 40.8795 41.7148 41.1472 38.7302C41.8427 39.1391 42.652 39.375 43.5156 39.375H49.231L56.0452 46.1893L54.3878 47.8464C53.7363 47.1945 49.9789 43.4372 49.4037 42.8619ZM57.6562 41.7188H54.8895L50.202 37.0312H43.5156C42.2232 37.0312 41.1719 35.9799 41.1719 34.6875H38.8281V38.2031C38.8281 39.7308 37.8485 41.0342 36.4844 41.5179V32.3438H57.6562V41.7188Z" fill="#044B89"/>
<path d="M38.8281 20.625H41.1719V27.6562H38.8281V20.625Z" fill="#044B89"/>
<path d="M48.5464 22.1396L50.2038 23.797L45.5163 28.4845L43.8589 26.8271L48.5464 22.1396Z" fill="#044B89"/>
<path d="M31.4535 22.1399L36.141 26.8274L34.4839 28.4848L29.7964 23.7973L31.4535 22.1399Z" fill="#044B89"/>
</svg>
