<svg width="90" height="26" viewBox="0 0 90 26" fill="none" xmlns="http://www.w3.org/2000/svg">
<rect width="90" height="26" rx="13" fill="#008F70"/>
<path d="M23.5117 13.8418L25.1934 14.375C24.9355 15.3125 24.5059 16.0098 23.9043 16.4668C23.3066 16.9199 22.5469 17.1465 21.625 17.1465C20.4844 17.1465 19.5469 16.7578 18.8125 15.9805C18.0781 15.1992 17.7109 14.1328 17.7109 12.7812C17.7109 11.3516 18.0801 10.2422 18.8184 9.45312C19.5566 8.66016 20.5273 8.26367 21.7305 8.26367C22.7812 8.26367 23.6348 8.57422 24.291 9.19531C24.6816 9.5625 24.9746 10.0898 25.1699 10.7773L23.4531 11.1875C23.3516 10.7422 23.1387 10.3906 22.8145 10.1328C22.4941 9.875 22.1035 9.74609 21.6426 9.74609C21.0059 9.74609 20.4883 9.97461 20.0898 10.4316C19.6953 10.8887 19.498 11.6289 19.498 12.6523C19.498 13.7383 19.6934 14.5117 20.084 14.9727C20.4746 15.4336 20.9824 15.6641 21.6074 15.6641C22.0684 15.6641 22.4648 15.5176 22.7969 15.2246C23.1289 14.9316 23.3672 14.4707 23.5117 13.8418ZM26.2949 13.8008C26.2949 13.2539 26.4297 12.7246 26.6992 12.2129C26.9688 11.7012 27.3496 11.3105 27.8418 11.041C28.3379 10.7715 28.8906 10.6367 29.5 10.6367C30.4414 10.6367 31.2129 10.9434 31.8145 11.5566C32.416 12.166 32.7168 12.9375 32.7168 13.8711C32.7168 14.8125 32.4121 15.5938 31.8027 16.2148C31.1973 16.832 30.4336 17.1406 29.5117 17.1406C28.9414 17.1406 28.3965 17.0117 27.877 16.7539C27.3613 16.4961 26.9688 16.1191 26.6992 15.623C26.4297 15.123 26.2949 14.5156 26.2949 13.8008ZM27.9824 13.8887C27.9824 14.5059 28.1289 14.9785 28.4219 15.3066C28.7148 15.6348 29.0762 15.7988 29.5059 15.7988C29.9355 15.7988 30.2949 15.6348 30.584 15.3066C30.877 14.9785 31.0234 14.502 31.0234 13.877C31.0234 13.2676 30.877 12.7988 30.584 12.4707C30.2949 12.1426 29.9355 11.9785 29.5059 11.9785C29.0762 11.9785 28.7148 12.1426 28.4219 12.4707C28.1289 12.7988 27.9824 13.2715 27.9824 13.8887ZM33.8887 10.7773H35.4062V11.627C35.9492 10.9668 36.5957 10.6367 37.3457 10.6367C37.7441 10.6367 38.0898 10.7188 38.3828 10.8828C38.6758 11.0469 38.916 11.2949 39.1035 11.627C39.377 11.2949 39.6719 11.0469 39.9883 10.8828C40.3047 10.7188 40.6426 10.6367 41.002 10.6367C41.459 10.6367 41.8457 10.7305 42.1621 10.918C42.4785 11.1016 42.7148 11.373 42.8711 11.7324C42.9844 11.998 43.041 12.4277 43.041 13.0215V17H41.3945V13.4434C41.3945 12.8262 41.3379 12.4277 41.2246 12.248C41.0723 12.0137 40.8379 11.8965 40.5215 11.8965C40.291 11.8965 40.0742 11.9668 39.8711 12.1074C39.668 12.248 39.5215 12.4551 39.4316 12.7285C39.3418 12.998 39.2969 13.4258 39.2969 14.0117V17H37.6504V13.5898C37.6504 12.9844 37.6211 12.5938 37.5625 12.418C37.5039 12.2422 37.4121 12.1113 37.2871 12.0254C37.166 11.9395 37 11.8965 36.7891 11.8965C36.5352 11.8965 36.3066 11.9648 36.1035 12.1016C35.9004 12.2383 35.7539 12.4355 35.6641 12.6934C35.5781 12.9512 35.5352 13.3789 35.5352 13.9766V17H33.8887V10.7773ZM44.6406 10.7773H46.1758V11.6914C46.375 11.3789 46.6445 11.125 46.9844 10.9297C47.3242 10.7344 47.7012 10.6367 48.1152 10.6367C48.8379 10.6367 49.4512 10.9199 49.9551 11.4863C50.459 12.0527 50.7109 12.8418 50.7109 13.8535C50.7109 14.8926 50.457 15.7012 49.9492 16.2793C49.4414 16.8535 48.8262 17.1406 48.1035 17.1406C47.7598 17.1406 47.4473 17.0723 47.166 16.9355C46.8887 16.7988 46.5957 16.5645 46.2871 16.2324V19.3672H44.6406V10.7773ZM46.2695 13.7832C46.2695 14.4824 46.4082 15 46.6855 15.3359C46.9629 15.668 47.3008 15.834 47.6992 15.834C48.082 15.834 48.4004 15.6816 48.6543 15.377C48.9082 15.0684 49.0352 14.5645 49.0352 13.8652C49.0352 13.2129 48.9043 12.7285 48.6426 12.4121C48.3809 12.0957 48.0566 11.9375 47.6699 11.9375C47.2676 11.9375 46.9336 12.0938 46.668 12.4062C46.4023 12.7148 46.2695 13.1738 46.2695 13.7832ZM52.0234 17V8.41016H53.6699V17H52.0234ZM58.9668 15.0195L60.6074 15.2949C60.3965 15.8965 60.0625 16.3555 59.6055 16.6719C59.1523 16.9844 58.584 17.1406 57.9004 17.1406C56.8184 17.1406 56.0176 16.7871 55.498 16.0801C55.0879 15.5137 54.8828 14.7988 54.8828 13.9355C54.8828 12.9043 55.1523 12.0977 55.6914 11.5156C56.2305 10.9297 56.9121 10.6367 57.7363 10.6367C58.6621 10.6367 59.3926 10.9434 59.9277 11.5566C60.4629 12.166 60.7188 13.1016 60.6953 14.3633H56.5703C56.582 14.8516 56.7148 15.2324 56.9688 15.5059C57.2227 15.7754 57.5391 15.9102 57.918 15.9102C58.1758 15.9102 58.3926 15.8398 58.5684 15.6992C58.7441 15.5586 58.877 15.332 58.9668 15.0195ZM59.0605 13.3555C59.0488 12.8789 58.9258 12.5176 58.6914 12.2715C58.457 12.0215 58.1719 11.8965 57.8359 11.8965C57.4766 11.8965 57.1797 12.0273 56.9453 12.2891C56.7109 12.5508 56.5957 12.9062 56.5996 13.3555H59.0605ZM64.8965 10.7773V12.0898H63.7715V14.5977C63.7715 15.1055 63.7812 15.4023 63.8008 15.4883C63.8242 15.5703 63.873 15.6387 63.9473 15.6934C64.0254 15.748 64.1191 15.7754 64.2285 15.7754C64.3809 15.7754 64.6016 15.7227 64.8906 15.6172L65.0312 16.8945C64.6484 17.0586 64.2148 17.1406 63.7305 17.1406C63.4336 17.1406 63.166 17.0918 62.9277 16.9941C62.6895 16.8926 62.5137 16.7637 62.4004 16.6074C62.291 16.4473 62.2148 16.2324 62.1719 15.9629C62.1367 15.7715 62.1191 15.3848 62.1191 14.8027V12.0898H61.3633V10.7773H62.1191V9.54102L63.7715 8.58008V10.7773H64.8965ZM69.6426 15.0195L71.2832 15.2949C71.0723 15.8965 70.7383 16.3555 70.2812 16.6719C69.8281 16.9844 69.2598 17.1406 68.5762 17.1406C67.4941 17.1406 66.6934 16.7871 66.1738 16.0801C65.7637 15.5137 65.5586 14.7988 65.5586 13.9355C65.5586 12.9043 65.8281 12.0977 66.3672 11.5156C66.9062 10.9297 67.5879 10.6367 68.4121 10.6367C69.3379 10.6367 70.0684 10.9434 70.6035 11.5566C71.1387 12.166 71.3945 13.1016 71.3711 14.3633H67.2461C67.2578 14.8516 67.3906 15.2324 67.6445 15.5059C67.8984 15.7754 68.2148 15.9102 68.5938 15.9102C68.8516 15.9102 69.0684 15.8398 69.2441 15.6992C69.4199 15.5586 69.5527 15.332 69.6426 15.0195ZM69.7363 13.3555C69.7246 12.8789 69.6016 12.5176 69.3672 12.2715C69.1328 12.0215 68.8477 11.8965 68.5117 11.8965C68.1523 11.8965 67.8555 12.0273 67.6211 12.2891C67.3867 12.5508 67.2715 12.9062 67.2754 13.3555H69.7363Z" fill="white"/>
</svg>
