<svg width="80" height="80" viewBox="0 0 80 80" fill="none" xmlns="http://www.w3.org/2000/svg">
<circle cx="40" cy="40" r="40" fill="#F2F2F2"/>
<g clip-path="url(#clip0)">
<path d="M29.5358 38.9059H20L20.1746 37.5018C21.3013 28.4381 28.4055 21.3055 37.5021 20.1746L38.9062 20V29.5358L37.9068 29.7403C33.7866 30.5811 30.5811 33.7863 29.7403 37.9062L29.5358 38.9059ZM22.6978 36.5622H27.6544C28.8565 32.2333 32.233 28.8568 36.5625 27.6544V22.6978C29.5349 24.0839 24.0866 29.5212 22.6978 36.5622Z" fill="#044B89"/>
<path d="M40 59.9997C29.9353 59.9997 21.4124 52.4756 20.1746 42.4976L20 41.0934H29.5383L29.7409 42.0959C30.7196 46.9476 35.0342 50.4684 40 50.4684C42.0432 50.4684 44.0457 49.873 45.7907 48.7466L46.6391 48.1992L53.3694 54.9298L52.2519 55.799C48.7183 58.5474 44.4818 59.9997 40 59.9997ZM22.6968 43.4372C24.3039 51.626 31.5341 57.6559 40 57.6559C43.5376 57.6559 46.9025 56.6306 49.8044 54.6793L46.2985 51.1731C44.3613 52.2479 42.2015 52.8122 40 52.8122C34.2264 52.8122 29.1714 48.9206 27.6532 43.4372H22.6968Z" fill="#044B89"/>
<path d="M54.9298 53.3694L48.1995 46.6388L48.7466 45.7907C49.8734 44.0454 50.4688 42.0432 50.4688 39.9997C50.4688 35.0342 46.9476 30.7196 42.0966 29.7409L41.0938 29.5383V20L42.4979 20.1746C52.4756 21.4124 60 29.9353 60 39.9997C60 44.4815 58.5474 48.7183 55.7993 52.2516L54.9298 53.3694ZM51.1734 46.2982L54.6793 49.8044C56.6309 46.9022 57.6562 43.5376 57.6562 39.9997C57.6562 31.5341 51.6257 24.3039 43.4375 22.6968V27.6529C48.9203 29.1711 52.8125 34.2261 52.8125 39.9997C52.8125 42.2012 52.2482 44.3613 51.1734 46.2982Z" fill="#044B89"/>
<path d="M34.1406 34.1403H41.1719V36.4841H34.1406V34.1403Z" fill="#044B89"/>
<path d="M34.1406 38.8278H41.1719V41.1716H34.1406V38.8278Z" fill="#044B89"/>
<path d="M43.5156 34.1403H45.8594V36.4841H43.5156V34.1403Z" fill="#044B89"/>
<path d="M43.5156 38.8278H45.8594V41.1716H43.5156V38.8278Z" fill="#044B89"/>
<path d="M34.1406 43.5153H41.1719V45.8591H34.1406V43.5153Z" fill="#044B89"/>
<path d="M43.5156 43.5153H45.8594V45.8591H43.5156V43.5153Z" fill="#044B89"/>
</g>
<defs>
<clipPath id="clip0">
<rect width="40" height="40" fill="white" transform="translate(20 20)"/>
</clipPath>
</defs>
</svg>
