<svg width="100" height="100" viewBox="0 0 100 100" fill="none" xmlns="http://www.w3.org/2000/svg">
<circle opacity="0.08" cx="50" cy="50" r="50" fill="#F76739"/>
<path d="M75 72.0703H66.2109V63.9439L57.4219 55.1548V51.3672H63.2812V45.5078H75C75 43.4669 75 41.7046 75 39.6484H72.0703V42.5781H69.1406V39.6484H66.2109V42.5781H57.4219V39.6484H63.2812V33.7891H75C75 31.7493 75 29.9694 75 27.9297H72.0703V30.8594H69.1406V27.9297H66.2109V30.8594H55.6358L54.9034 27.9297H57.4219V25H42.5781V27.9297H45.0966L44.3642 30.8594H33.7891V27.9297H30.8594V30.8594H27.9297V27.9297H25V33.7891H36.7188V39.6484H42.5781V42.5781H33.7891V39.6484H30.8594V42.5781H27.9297V39.6484H25V45.5078H36.7188V51.3672H42.5781V55.1548L33.7891 63.9439V72.0703H25V75H75V72.0703ZM60.3516 45.5078V48.4375H57.4219V45.5078H60.3516ZM60.3516 33.7891V36.7188H57.1007L56.3683 33.7891H60.3516ZM55.3501 57.2266L61.2095 63.0859H51.4648V57.2266H55.3501ZM48.1163 27.9297H51.8837L52.6161 30.8594H47.3839L48.1163 27.9297ZM46.6515 33.7891H53.3485L54.081 36.7188H45.919L46.6515 33.7891ZM45.5078 39.6484H54.4922V42.5781H45.5078V39.6484ZM45.5078 45.5078H54.4922V48.4375H45.5078V45.5078ZM45.5078 51.3672H54.4922V54.2969H45.5078V51.3672ZM39.6484 36.7188V33.7891H43.6317L42.8993 36.7188H39.6484ZM39.6484 48.4375V45.5078H42.5781V48.4375H39.6484ZM44.6499 57.2266H48.5352V63.0859H38.7905L44.6499 57.2266ZM39.6484 72.0703H36.7188V66.0156H39.6484V72.0703ZM57.4219 72.0703C55.2216 72.0703 44.5423 72.0703 42.5781 72.0703V66.0156H57.4219V72.0703ZM63.2812 72.0703H60.3516V66.0156H63.2812V72.0703Z" fill="#F76739"/>
</svg>
