<svg width="48" height="47" viewBox="0 0 48 47" fill="none" xmlns="http://www.w3.org/2000/svg">
<path d="M48 23.5C48 10.5199 37.2562 0 24 0C10.7438 0 0 10.5199 0 23.5C0 35.2316 8.775 44.9529 20.25 46.7154V30.293H14.1562V23.5H20.25V18.3227C20.25 12.4339 23.8313 9.17969 29.3156 9.17969C31.9406 9.17969 34.6875 9.63867 34.6875 9.63867V15.4219H31.6594C28.6781 15.4219 27.75 17.2349 27.75 19.0938V23.5H34.4062L33.3422 30.293H27.75V46.7154C39.225 44.9529 48 35.2316 48 23.5Z" fill="#1877F2"/>
<path d="M33.3422 30.293L34.4062 23.5H27.75V19.0938C27.75 17.2349 28.6781 15.4219 31.6594 15.4219H34.6875V9.63867C34.6875 9.63867 31.9406 9.17969 29.3156 9.17969C23.8313 9.17969 20.25 12.4339 20.25 18.3227V23.5H14.1562V30.293H20.25V46.7154C21.4734 46.9036 22.725 47 24 47C25.275 47 26.5266 46.9036 27.75 46.7154V30.293H33.3422Z" fill="white"/>
</svg>
