<svg width="16" height="16" viewBox="0 0 16 16" fill="none" xmlns="http://www.w3.org/2000/svg">
<path d="M15.5312 0.84375H5.43286C5.38562 0.370605 4.98535 0 4.5 0H0.9375C0.420532 0 0 0.420532 0 0.9375V11.8438C0 12.3607 0.420532 12.7812 0.9375 12.7812H2.25V14.5936C2.25 15.369 2.88086 15.9999 3.65625 15.9999H7.0625C7.83789 15.9999 8.46875 15.369 8.46875 14.5936V11.9375H15.5312C15.7902 11.9375 16 11.7275 16 11.4688V1.3125C16 1.05359 15.7902 0.84375 15.5312 0.84375ZM0.937378 0.9375H4.5V11.8438H2.71985C2.71948 11.8438 2.71912 11.8436 2.71875 11.8436C2.71838 11.8436 2.71802 11.8438 2.71765 11.8438H0.9375L0.937378 0.9375ZM7.53125 14.5936C7.53125 14.8522 7.32092 15.0624 7.0625 15.0624H3.65625C3.39783 15.0624 3.1875 14.8522 3.1875 14.5936V12.7812H4.5C4.98535 12.7812 5.38562 12.4106 5.43286 11.9375H7.53125V14.5936ZM15.0625 11H5.4375V1.78125H15.0625V11Z" fill="#044B89"/>
</svg>
