<svg width="16" height="16" viewBox="0 0 16 16" fill="none" xmlns="http://www.w3.org/2000/svg">
<path d="M3.36632 15.4364V2.09589L1.08875 4.13894C1.04948 4.17417 1.00367 4.20352 0.95131 4.22701C0.898952 4.25049 0.846594 4.2681 0.794236 4.27984C0.741878 4.29158 0.689521 4.29746 0.637163 4.29746C0.584805 4.29746 0.532447 4.29158 0.480089 4.27984C0.427731 4.2681 0.378645 4.25049 0.332832 4.22701C0.287019 4.20352 0.244478 4.17417 0.205209 4.13894C-0.0304014 3.92759 -0.0631251 3.69863 0.107038 3.45205C0.133217 3.40509 0.165941 3.36399 0.205209 3.32877L4.01425 0L7.82329 3.32877C7.9411 3.44618 8 3.58121 8 3.73386C8 3.8865 7.93782 4.01859 7.81347 4.13014C7.68912 4.24168 7.54187 4.29746 7.3717 4.29746C7.20154 4.29746 7.05101 4.24462 6.92012 4.13894L4.62291 2.06067V15.4364C4.62291 15.6008 4.56074 15.7358 4.43639 15.8415C4.31204 15.9472 4.16478 16 3.99462 16C3.90299 16 3.81791 15.9853 3.73937 15.956C3.66083 15.9266 3.59539 15.8885 3.54303 15.8415C3.49067 15.7945 3.44813 15.7358 3.41541 15.6654C3.38268 15.5949 3.36632 15.5186 3.36632 15.4364Z" fill="#474747"/>
<path d="M11.3663 0.563601V13.9041L9.08875 11.8611C9.04948 11.8258 9.00367 11.7965 8.95131 11.773C8.89895 11.7495 8.84659 11.7319 8.79424 11.7202C8.74188 11.7084 8.68952 11.7025 8.63716 11.7025C8.5848 11.7025 8.53245 11.7084 8.48009 11.7202C8.42773 11.7319 8.37865 11.7495 8.33283 11.773C8.28702 11.7965 8.24448 11.8258 8.20521 11.8611C7.9696 12.0724 7.93687 12.3014 8.10704 12.5479C8.13322 12.5949 8.16594 12.636 8.20521 12.6712L12.0143 16L15.8233 12.6712C15.9411 12.5538 16 12.4188 16 12.2661C16 12.1135 15.9378 11.9814 15.8135 11.8699C15.6891 11.7583 15.5419 11.7025 15.3717 11.7025C15.2015 11.7025 15.051 11.7554 14.9201 11.8611L12.6229 13.9393V0.563601C12.6229 0.399217 12.5607 0.264188 12.4364 0.158513C12.312 0.0528379 12.1648 0 11.9946 0C11.903 0 11.8179 0.0146769 11.7394 0.0440311C11.6608 0.0733854 11.5954 0.111546 11.543 0.158513C11.4907 0.20548 11.4481 0.264188 11.4154 0.334638C11.3827 0.405088 11.3663 0.481409 11.3663 0.563601Z" fill="#474747"/>
</svg>
