<svg width="16" height="16" viewBox="0 0 16 16" fill="none" xmlns="http://www.w3.org/2000/svg">
<path d="M15 1.5H11V0.5C11 0.364583 10.9505 0.247396 10.8516 0.148438C10.7526 0.0494792 10.6354 0 10.5 0C10.3646 0 10.2474 0.0494792 10.1484 0.148438C10.0495 0.247396 10 0.364583 10 0.5V1.5H6V0.5C6 0.364583 5.95052 0.247396 5.85156 0.148438C5.7526 0.0494792 5.63542 0 5.5 0C5.36458 0 5.2474 0.0494792 5.14844 0.148438C5.04948 0.247396 5 0.364583 5 0.5V1.5H1C0.71875 1.5 0.481771 1.59635 0.289062 1.78906C0.0963542 1.98177 0 2.21875 0 2.5V15C0 15.1771 0.0442708 15.3438 0.132812 15.5C0.221354 15.6562 0.34375 15.7786 0.5 15.8672C0.65625 15.9557 0.822917 16 1 16H15C15.2812 16 15.5182 15.901 15.7109 15.7031C15.9036 15.5052 16 15.2708 16 15V2.5C16 2.3125 15.9557 2.14323 15.8672 1.99219C15.7786 1.84115 15.6562 1.72135 15.5 1.63281C15.3438 1.54427 15.1771 1.5 15 1.5ZM15 15H1V2.5H5V3C5 3.13542 5.04948 3.2526 5.14844 3.35156C5.2474 3.45052 5.36458 3.5 5.5 3.5C5.63542 3.5 5.7526 3.45052 5.85156 3.35156C5.95052 3.2526 6 3.13542 6 3V2.5H10V3C10 3.13542 10.0495 3.2526 10.1484 3.35156C10.2474 3.45052 10.3646 3.5 10.5 3.5C10.6354 3.5 10.7526 3.45052 10.8516 3.35156C10.9505 3.2526 11 3.13542 11 3V2.5H15V15ZM11.5 8H12.5C12.6354 8 12.7526 7.95052 12.8516 7.85156C12.9505 7.7526 13 7.63542 13 7.5V6.5C13 6.36458 12.9505 6.2474 12.8516 6.14844C12.7526 6.04948 12.6354 6 12.5 6H11.5C11.3646 6 11.2474 6.04948 11.1484 6.14844C11.0495 6.2474 11 6.36458 11 6.5V7.5C11 7.63542 11.0495 7.7526 11.1484 7.85156C11.2474 7.95052 11.3646 8 11.5 8ZM11.5 12H12.5C12.6354 12 12.7526 11.9505 12.8516 11.8516C12.9505 11.7526 13 11.6354 13 11.5V10.5C13 10.3646 12.9505 10.2474 12.8516 10.1484C12.7526 10.0495 12.6354 10 12.5 10H11.5C11.3646 10 11.2474 10.0495 11.1484 10.1484C11.0495 10.2474 11 10.3646 11 10.5V11.5C11 11.6354 11.0495 11.7526 11.1484 11.8516C11.2474 11.9505 11.3646 12 11.5 12ZM8.5 10H7.5C7.36458 10 7.2474 10.0495 7.14844 10.1484C7.04948 10.2474 7 10.3646 7 10.5V11.5C7 11.5521 7.00781 11.6042 7.02344 11.6562C7.03906 11.7083 7.0625 11.7552 7.09375 11.7969C7.125 11.8385 7.16146 11.875 7.20312 11.9062C7.24479 11.9375 7.29167 11.9609 7.34375 11.9766C7.39583 11.9922 7.44792 12 7.5 12H8.5C8.63542 12 8.7526 11.9505 8.85156 11.8516C8.95052 11.7526 9 11.6354 9 11.5V10.5C9 10.4583 8.99479 10.4141 8.98438 10.3672C8.97396 10.3203 8.95833 10.2786 8.9375 10.2422C8.91667 10.2057 8.89062 10.1719 8.85938 10.1406C8.82812 10.1094 8.79427 10.0833 8.75781 10.0625C8.72135 10.0417 8.67969 10.026 8.63281 10.0156C8.58594 10.0052 8.54167 10 8.5 10ZM8.5 6H7.5C7.36458 6 7.2474 6.04948 7.14844 6.14844C7.04948 6.2474 7 6.36458 7 6.5V7.5C7 7.63542 7.04948 7.7526 7.14844 7.85156C7.2474 7.95052 7.36458 8 7.5 8H8.5C8.63542 8 8.7526 7.95052 8.85156 7.85156C8.95052 7.7526 9 7.63542 9 7.5V6.5C9 6.42708 8.98698 6.36198 8.96094 6.30469C8.9349 6.2474 8.89844 6.19531 8.85156 6.14844C8.80469 6.10156 8.7526 6.0651 8.69531 6.03906C8.63802 6.01302 8.57292 6 8.5 6ZM4.5 6H3.5C3.36458 6 3.2474 6.04948 3.14844 6.14844C3.04948 6.2474 3 6.36458 3 6.5V7.5C3 7.63542 3.04948 7.7526 3.14844 7.85156C3.2474 7.95052 3.36458 8 3.5 8H4.5C4.63542 8 4.7526 7.95052 4.85156 7.85156C4.95052 7.7526 5 7.63542 5 7.5V6.5C5 6.42708 4.98698 6.36198 4.96094 6.30469C4.9349 6.2474 4.89844 6.19531 4.85156 6.14844C4.80469 6.10156 4.7526 6.0651 4.69531 6.03906C4.63802 6.01302 4.57292 6 4.5 6ZM4.5 10H3.5C3.36458 10 3.2474 10.0495 3.14844 10.1484C3.04948 10.2474 3 10.3646 3 10.5V11.5C3 11.6354 3.04948 11.7526 3.14844 11.8516C3.2474 11.9505 3.36458 12 3.5 12H4.5C4.63542 12 4.7526 11.9505 4.85156 11.8516C4.95052 11.7526 5 11.6354 5 11.5V10.5C5 10.4583 4.99479 10.4141 4.98438 10.3672C4.97396 10.3203 4.95833 10.2786 4.9375 10.2422C4.91667 10.2057 4.89062 10.1719 4.85938 10.1406C4.82812 10.1094 4.79427 10.0833 4.75781 10.0625C4.72135 10.0417 4.67969 10.026 4.63281 10.0156C4.58594 10.0052 4.54167 10 4.5 10Z" fill="#474747"/>
</svg>
