<svg width="16" height="16" viewBox="0 0 16 16" fill="none" xmlns="http://www.w3.org/2000/svg">
<path d="M14.8327 3.32368V3.33907L14.8173 3.35445C13.9353 3.96984 12.9148 4.64676 11.7558 5.38522C11.6737 5.39548 11.566 5.36471 11.4327 5.29291C11.2481 5.2006 10.7917 4.94419 10.0635 4.52368L9.52502 4.21599L9.01733 4.56984C8.33015 5.05189 7.50451 5.77496 6.54041 6.73907C5.5763 7.70317 4.85836 8.52368 4.38656 9.2006L4.01733 9.7083L4.32502 10.2621C4.74554 10.9903 5.00195 11.4468 5.09425 11.6314C5.13528 11.7032 5.16348 11.7647 5.17887 11.816C5.19425 11.8673 5.20195 11.9083 5.20195 11.9391V11.9545C4.68913 12.7647 4.00707 13.7903 3.15579 15.0314C3.084 15.0416 3.00707 15.016 2.92502 14.9544C2.49425 14.6468 2.08656 14.3032 1.70195 13.9237C1.31733 13.5442 1.08913 13.2673 1.01733 13.0929C1.06861 12.1698 1.48656 11.0801 2.27118 9.82368C3.05579 8.56727 4.16605 7.22112 5.60195 5.78522C6.31989 5.07753 7.01733 4.44419 7.69425 3.88522C8.37118 3.32625 9.01733 2.85189 9.63272 2.46214C10.2481 2.0724 10.8327 1.7724 11.3866 1.56214C11.9404 1.35189 12.443 1.2365 12.8943 1.21599C13.0686 1.27753 13.3455 1.5006 13.725 1.88522C14.1045 2.26984 14.4481 2.67753 14.7558 3.1083C14.7968 3.18009 14.8225 3.25189 14.8327 3.32368ZM15.7866 3.32368C15.7866 3.26214 15.7814 3.20573 15.7712 3.15445L15.7404 3.0006L15.6943 2.84676L15.625 2.69291L15.5404 2.53907C15.4994 2.47753 15.4353 2.39035 15.3481 2.27753C15.2609 2.16471 15.1071 1.97753 14.8866 1.71599C14.666 1.45445 14.4507 1.22112 14.2404 1.01599C14.0302 0.810861 13.8019 0.626245 13.5558 0.462143C13.3096 0.29804 13.0943 0.221117 12.9096 0.231374C12.2737 0.251887 11.5917 0.410861 10.8635 0.708297C10.1353 1.00573 9.41477 1.40317 8.70195 1.9006C7.98913 2.39804 7.33015 2.90317 6.72502 3.41599C6.11989 3.92881 5.51477 4.48778 4.90964 5.09291C4.30451 5.69804 3.74297 6.30317 3.22502 6.9083C2.70707 7.51342 2.19938 8.1724 1.70195 8.88522C1.20451 9.59804 0.807074 10.3211 0.509638 11.0545C0.212202 11.7878 0.0532277 12.4775 0.0327148 13.1237V13.1391C0.0327148 13.3134 0.114766 13.5237 0.278869 13.7698C0.442971 14.016 0.630151 14.2442 0.840407 14.4544C1.05066 14.6647 1.28143 14.8801 1.53271 15.1006C1.784 15.3211 1.97118 15.4775 2.09425 15.5698L2.34041 15.7544C2.66861 15.9596 2.97887 16.0442 3.27118 16.0083C3.56348 15.9724 3.78143 15.8468 3.92502 15.6314C3.95579 15.6006 4.02502 15.5032 4.13271 15.3391C4.24041 15.175 4.36605 14.9852 4.50964 14.7698C4.65323 14.5545 4.80964 14.3211 4.97887 14.0698C5.1481 13.8186 5.30451 13.5801 5.4481 13.3545C5.59169 13.1288 5.71989 12.9314 5.83272 12.7621C5.94554 12.5929 6.01733 12.4827 6.0481 12.4314C6.08913 12.3698 6.12246 12.2955 6.1481 12.2083C6.17374 12.1211 6.18656 12.0314 6.18656 11.9391C6.18656 11.8775 6.18143 11.816 6.17118 11.7544C6.16092 11.6929 6.14554 11.6288 6.12502 11.5621C6.10451 11.4955 6.08143 11.4288 6.05579 11.3621C6.03015 11.2955 6.00195 11.2314 5.97118 11.1698C5.86861 10.975 5.60707 10.5083 5.18656 9.76983C5.62759 9.14419 6.31477 8.36471 7.2481 7.43137C7.78143 6.89804 8.24297 6.46471 8.63272 6.13137C9.02246 5.79804 9.33528 5.54932 9.57118 5.38522C10.3199 5.80573 10.7866 6.06727 10.9712 6.16984C11.484 6.4365 11.9096 6.46214 12.2481 6.24676C12.4122 6.14419 12.9532 5.78522 13.8712 5.16984C14.7891 4.55445 15.3045 4.20573 15.4173 4.12368C15.6635 3.94932 15.7866 3.68266 15.7866 3.32368Z" fill="#044B89"/>
</svg>
