<svg width="24" height="24" viewBox="0 0 24 24" fill="none" xmlns="http://www.w3.org/2000/svg">
<g clip-path="url(#clip0)">
<path d="M1.31444 5.00893C1.24457 4.9375 1.18342 4.85714 1.13102 4.76786C1.07861 4.67857 1.04367 4.58482 1.0262 4.48661C1.00873 4.38839 1 4.27679 1 4.15179C1 3.8125 1.10481 3.53571 1.31444 3.32143C1.52407 3.10714 1.79484 3 2.12675 3H26.0505C26.3824 3 26.6531 3.10714 26.8628 3.32143C27.0724 3.53571 27.1772 3.8125 27.1772 4.15179C27.1772 4.49107 27.0724 4.77232 26.8628 4.99554C26.6531 5.21875 26.3824 5.33036 26.0505 5.33036H2.12675C1.79484 5.33036 1.52407 5.22321 1.31444 5.00893ZM26.8628 12.6429C27.0724 12.8571 27.1772 13.1339 27.1772 13.4732C27.1772 13.8125 27.0724 14.0893 26.8628 14.3036C26.6531 14.5179 26.3824 14.625 26.0505 14.625H2.12675C1.79484 14.625 1.52407 14.5179 1.31444 14.3036C1.2795 14.2679 1.24457 14.2232 1.20963 14.1696C1.17469 14.1161 1.14412 14.0625 1.11792 14.0089C1.09171 13.9554 1.06988 13.9018 1.05241 13.8482C1.03494 13.7946 1.02184 13.7366 1.0131 13.6741C1.00437 13.6116 1 13.5446 1 13.4732C1 13.1339 1.10481 12.8571 1.31444 12.6429C1.52407 12.4286 1.79484 12.3214 2.12675 12.3214H26.0505C26.3824 12.3214 26.6531 12.4286 26.8628 12.6429ZM26.8628 21.9375C27.0724 22.1518 27.1772 22.4286 27.1772 22.7679C27.1772 23.1071 27.0724 23.3884 26.8628 23.6116C26.6531 23.8348 26.3824 23.9464 26.0505 23.9464H2.12675C1.79484 23.9464 1.52407 23.8393 1.31444 23.625C1.2795 23.5893 1.24893 23.5491 1.22273 23.5045L1.14412 23.3705L1.07861 23.2366L1.0262 23.0893L1 22.942V22.7679C1 22.4286 1.10481 22.1518 1.31444 21.9375C1.52407 21.7232 1.79484 21.6161 2.12675 21.6161H26.0505C26.3649 21.6161 26.6357 21.7232 26.8628 21.9375Z" fill="#044B89"/>
</g>
<defs>
<clipPath id="clip0">
<rect width="24" height="24" fill="white"/>
</clipPath>
</defs>
</svg>
