<svg width="76" height="70" viewBox="0 0 76 70" fill="none" xmlns="http://www.w3.org/2000/svg">
<path d="M27.8945 39.168V69.375H0V45.5273C0 32.6159 1.54167 23.2695 4.625 17.4883C8.67188 9.77995 15.0794 3.95052 23.8477 0L30.207 10.1172C24.9076 12.3333 21.0052 15.6576 18.5 20.0898C15.9948 24.4258 14.5977 30.7852 14.3086 39.168H27.8945ZM72.6992 39.168V69.375H44.8047V45.5273C44.8047 32.6159 46.3464 23.2695 49.4297 17.4883C53.4766 9.77995 59.8841 3.95052 68.6523 0L75.0117 10.1172C69.7122 12.3333 65.8099 15.6576 63.3047 20.0898C60.7995 24.4258 59.4023 30.7852 59.1133 39.168H72.6992Z" fill="#F2F2F2"/>
</svg>
