<svg width="14" height="14" viewBox="0 0 14 14" fill="none" xmlns="http://www.w3.org/2000/svg">
<path d="M13.8782 13.248L9.70964 8.96875C10.5407 7.95703 10.9562 6.79036 10.9562 5.46875C10.9562 4.47526 10.7172 3.55924 10.2391 2.7207C9.76102 1.88216 9.1087 1.21908 8.28213 0.731445C7.45557 0.243815 6.55751 0 5.58797 0C4.61843 0 3.72261 0.243815 2.90051 0.731445C2.07841 1.21908 1.42833 1.88216 0.950257 2.7207C0.472189 3.55924 0.233154 4.47526 0.233154 5.46875C0.233154 6.46224 0.472189 7.37826 0.950257 8.2168C1.42833 9.05534 2.07841 9.71842 2.90051 10.2061C3.72261 10.6937 4.62066 10.9375 5.59467 10.9375C6.92612 10.9375 8.09671 10.4909 9.10647 9.59766L13.2616 13.8633C13.351 13.9544 13.4538 14 13.5699 14C13.6861 14 13.7866 13.9567 13.8715 13.8701C13.9564 13.7835 13.9989 13.6787 13.9989 13.5557C13.9989 13.4326 13.9586 13.3301 13.8782 13.248ZM5.59467 10.0762C4.77257 10.0762 4.01526 9.86882 3.32273 9.4541C2.6302 9.03939 2.08288 8.47884 1.68076 7.77246C1.27865 7.06608 1.07759 6.29818 1.07759 5.46875C1.07759 4.63932 1.27865 3.87142 1.68076 3.16504C2.08288 2.45866 2.6302 1.89811 3.32273 1.4834C4.01526 1.06868 4.77034 0.861328 5.58797 0.861328C6.4056 0.861328 7.16068 1.06868 7.85321 1.4834C8.54574 1.89811 9.09306 2.45866 9.49518 3.16504C9.89729 3.87142 10.0983 4.63932 10.0983 5.46875C10.0983 5.82422 10.0581 6.17513 9.97771 6.52148C9.89729 6.86784 9.78336 7.19141 9.63592 7.49219C9.48848 7.79297 9.31199 8.0778 9.10647 8.34668C8.90094 8.61556 8.66861 8.85482 8.40947 9.06445C8.15033 9.27409 7.87332 9.4541 7.57843 9.60449C7.28355 9.75488 6.96633 9.87109 6.62677 9.95312C6.2872 10.0352 5.94317 10.0762 5.59467 10.0762Z" fill="white"/>
</svg>
