<svg width="16" height="12" viewBox="0 0 16 12" fill="none" xmlns="http://www.w3.org/2000/svg">
<path d="M16.0391 1.62549C16.0495 1.59424 16.0547 1.56299 16.0547 1.53174C16.0547 1.50049 16.0495 1.46924 16.0391 1.43799L16.0078 1.34424C15.8828 0.781738 15.4818 0.500488 14.8047 0.500488H1.80469C1.49219 0.500488 1.19271 0.55778 0.90625 0.672363C0.619792 0.786947 0.403646 0.943197 0.257813 1.14111L0.179688 1.21924C0.0755208 1.33382 0.0390625 1.46924 0.0703125 1.62549C0.0598958 1.64632 0.0546875 1.66715 0.0546875 1.68799V9.75049C0.0546875 10.1672 0.242188 10.563 0.617188 10.938C0.992188 11.313 1.38802 11.5005 1.80469 11.5005H14.8047C15.1901 11.5005 15.4948 11.3234 15.7188 10.9692C15.9427 10.6151 16.0547 10.2088 16.0547 9.75049V1.66455L16.0391 1.62549ZM1.80469 1.50049H14.8047L8.05469 6.89111L1.32031 1.51611C1.40365 1.5057 1.5651 1.50049 1.80469 1.50049ZM14.8047 10.5005H1.80469C1.71094 10.5005 1.60417 10.4588 1.48438 10.3755C1.36458 10.2922 1.26302 10.1906 1.17969 10.0708C1.09635 9.95101 1.05469 9.84424 1.05469 9.75049V2.59424L7.72656 7.92236C7.82031 8.0057 7.92969 8.04736 8.05469 8.04736C8.17969 8.03695 8.28906 7.99528 8.38281 7.92236L15.0547 2.59424V9.81299C15.0547 10.2713 14.9714 10.5005 14.8047 10.5005Z" fill="#044B89"/>
</svg>
