<svg width="22" height="19" viewBox="0 0 22 19" fill="none" xmlns="http://www.w3.org/2000/svg">
<path d="M21.6293 9.92666L11.5964 1.06701C11.5408 1.00829 11.4713 0.964259 11.3879 0.934903C11.3044 0.905547 11.214 0.890869 11.1167 0.890869C10.9359 0.890869 10.776 0.949581 10.637 1.06701L0.562361 9.92666C0.478927 10.0089 0.423305 10.0969 0.395494 10.1909C0.367683 10.2848 0.371159 10.3817 0.405923 10.4815C0.440687 10.5813 0.499786 10.6664 0.583219 10.7369C0.652747 10.7839 0.729228 10.822 0.812661 10.8514C0.896095 10.8807 0.979528 10.8925 1.06296 10.8866C1.1464 10.8807 1.22983 10.8631 1.31326 10.8338C1.3967 10.8044 1.46622 10.7662 1.52185 10.7193L2.43961 9.92666V18.3636C2.43961 18.5162 2.50219 18.6483 2.62734 18.7599C2.75249 18.8715 2.9124 18.9272 3.10708 18.9272H7.7585C7.81412 18.9272 7.86627 18.9214 7.91494 18.9096C7.96361 18.8979 8.0088 18.8832 8.05052 18.8656C8.09223 18.848 8.13395 18.8245 8.17567 18.7951C8.21738 18.7658 8.25215 18.7364 8.27996 18.7071C8.30777 18.6777 8.33211 18.6454 8.35296 18.6102C8.37382 18.575 8.3912 18.5339 8.40511 18.4869C8.41901 18.4399 8.42597 18.3988 8.42597 18.3636L8.44683 12.7272H13.7657V18.3636C13.7657 18.5162 13.8318 18.6483 13.9639 18.7599C14.096 18.8715 14.2524 18.9272 14.4332 18.9272H19.1055C19.2862 18.9272 19.4427 18.8715 19.5748 18.7599C19.7069 18.6483 19.7729 18.5162 19.7729 18.3636V9.92666L20.6698 10.7193C20.795 10.8367 20.9549 10.8954 21.1496 10.8954C21.3303 10.8954 21.4833 10.8426 21.6085 10.7369C21.7336 10.6195 21.7997 10.4844 21.8066 10.3318C21.8136 10.1791 21.7545 10.0441 21.6293 9.92666ZM18.438 8.90507V17.8H15.1006V12.1636C15.1006 12.0109 15.0346 11.8788 14.9025 11.7673C14.7704 11.6557 14.614 11.6 14.4332 11.6H7.77936C7.59859 11.6 7.44215 11.6557 7.31004 11.7673C7.17794 11.8788 7.11189 12.0109 7.11189 12.1636L7.09103 17.8H3.77455V8.90507C3.77455 8.8581 3.7676 8.81113 3.75369 8.76416L11.1167 2.28235L18.4588 8.76416C18.4449 8.81113 18.438 8.8581 18.438 8.90507Z" fill="#044B89"/>
</svg>
