<svg width="32" height="32" viewBox="0 0 32 32" fill="none" xmlns="http://www.w3.org/2000/svg">
<rect x="2" y="2" width="28" height="28" rx="14" fill="white"/>
<path d="M16 30.0312C17.5208 30.0312 18.9948 29.7969 20.4219 29.3281C21.849 28.8594 23.1354 28.1875 24.2812 27.3125C25.4271 26.4375 26.4323 25.4271 27.2969 24.2812C28.1615 23.1354 28.8281 21.849 29.2969 20.4219C29.7656 18.9948 30 17.5208 30 16C30 14.1042 29.6302 12.2917 28.8906 10.5625C28.151 8.83333 27.1562 7.34375 25.9062 6.09375C24.6562 4.84375 23.1667 3.84896 21.4375 3.10938C19.7083 2.36979 17.8958 2 16 2C14.1042 2 12.2917 2.36979 10.5625 3.10938C8.83333 3.84896 7.34375 4.84375 6.09375 6.09375C4.84375 7.34375 3.84896 8.83333 3.10938 10.5625C2.36979 12.2917 2 14.1042 2 16C2 17.8958 2.36979 19.7083 3.10938 21.4375C3.84896 23.1667 4.84375 24.6615 6.09375 25.9219C7.34375 27.1823 8.83333 28.1823 10.5625 28.9219C12.2917 29.6615 14.1042 30.0312 16 30.0312ZM15.3594 9.95312C15.5573 10.151 15.6562 10.3906 15.6562 10.6719C15.6562 10.9531 15.5625 11.1875 15.375 11.375L11.75 15H23C23.2917 15 23.5312 15.0938 23.7188 15.2812C23.9062 15.4688 24 15.7031 24 15.9844C24 16.2656 23.9062 16.5052 23.7188 16.7031C23.5312 16.901 23.2917 17 23 17H11.6875L15.375 20.6562C15.4583 20.7604 15.526 20.875 15.5781 21C15.6302 21.125 15.6562 21.25 15.6562 21.375C15.6562 21.5 15.6302 21.625 15.5781 21.75C15.526 21.875 15.4531 21.9844 15.3594 22.0781C15.2656 22.1719 15.1562 22.2448 15.0312 22.2969C14.9062 22.349 14.7812 22.375 14.6562 22.375C14.3854 22.375 14.1458 22.2812 13.9375 22.0938L8.03125 16.0312L13.9375 9.96875C14.1458 9.76042 14.3854 9.65625 14.6562 9.65625C14.9271 9.65625 15.1615 9.75521 15.3594 9.95312Z" fill="#E23E34"/>
</svg>
