<svg width="16" height="16" viewBox="0 0 16 16" fill="none" xmlns="http://www.w3.org/2000/svg">
<path d="M13.9378 1H3.06223C1.92514 1 1 1.92496 1 3.06223V9.71783C1 10.8525 1.92111 11.776 3.0549 11.7801V14.4175C3.0549 14.579 3.23653 14.6739 3.36913 14.5816L7.39532 11.7801H13.9378C15.0749 11.7801 16 10.8549 16 9.71783V3.06223C16 1.92496 15.0749 1 13.9378 1ZM15.1211 9.71783C15.1211 10.3702 14.5903 10.9012 13.9378 10.9012H7.11957L3.93381 13.118V10.9012H3.06223C2.40973 10.9012 1.87891 10.3702 1.87891 9.71783V3.06223C1.87891 2.40964 2.40973 1.87891 3.06223 1.87891H13.9378C14.5903 1.87891 15.1211 2.40964 15.1211 3.06223V9.71783Z" fill="#474747"/>
<path d="M5.01465 4.10559H11.9853V4.98449H5.01465V4.10559Z" fill="#474747"/>
<path d="M5.01465 5.98059H11.9853V6.85949H5.01465V5.98059Z" fill="#474747"/>
<path d="M5.01465 7.85559H11.9853V8.73449H5.01465V7.85559Z" fill="#474747"/>
</svg>
