<svg width="16" height="16" viewBox="0 0 16 16" fill="none" xmlns="http://www.w3.org/2000/svg">
<path d="M8 0C6.55208 0 5.21354 0.356771 3.98438 1.07031C2.75521 1.78385 1.78385 2.75521 1.07031 3.98438C0.356771 5.21354 0 6.55208 0 8C0 9.44792 0.356771 10.7865 1.07031 12.0156C1.78385 13.2448 2.75521 14.2161 3.98438 14.9297C5.21354 15.6432 6.55208 16 8 16C9.44792 16 10.7865 15.6432 12.0156 14.9297C13.2448 14.2161 14.2161 13.2448 14.9297 12.0156C15.6432 10.7865 16 9.44792 16 8C16 6.55208 15.6432 5.21354 14.9297 3.98438C14.2161 2.75521 13.2448 1.78385 12.0156 1.07031C10.7865 0.356771 9.44792 0 8 0ZM8 15.0156C7.23958 15.0156 6.5026 14.8984 5.78906 14.6641C5.07552 14.4297 4.43229 14.0938 3.85938 13.6562C3.28646 13.2188 2.78385 12.7135 2.35156 12.1406C1.91927 11.5677 1.58594 10.9245 1.35156 10.2109C1.11719 9.4974 1 8.76042 1 8C1 7.05208 1.1849 6.14583 1.55469 5.28125C1.92448 4.41667 2.42188 3.67188 3.04688 3.04688C3.67188 2.42188 4.41667 1.92448 5.28125 1.55469C6.14583 1.1849 7.05208 1 8 1C8.94792 1 9.85417 1.1849 10.7188 1.55469C11.5833 1.92448 12.3281 2.42188 12.9531 3.04688C13.5781 3.67188 14.0755 4.41667 14.4453 5.28125C14.8151 6.14583 15 7.05208 15 8C15 8.94792 14.8151 9.85417 14.4453 10.7188C14.0755 11.5833 13.5781 12.3307 12.9531 12.9609C12.3281 13.5911 11.5833 14.0911 10.7188 14.4609C9.85417 14.8307 8.94792 15.0156 8 15.0156ZM8.5 7.79688V3C8.5 2.86458 8.45052 2.7474 8.35156 2.64844C8.2526 2.54948 8.13542 2.5 8 2.5C7.86458 2.5 7.7474 2.54948 7.64844 2.64844C7.54948 2.7474 7.5 2.86458 7.5 3V8C7.5 8.14583 7.55208 8.26562 7.65625 8.35938L7.66406 8.375L7.67188 8.39062L10.1562 10.8594C10.25 10.9635 10.3672 11.0156 10.5078 11.0156C10.6484 11.0156 10.7656 10.9661 10.8594 10.8672C10.9531 10.7682 11 10.6484 11 10.5078C11 10.3672 10.9531 10.25 10.8594 10.1562L8.5 7.79688Z" fill="#333333"/>
</svg>
