<svg width="24" height="24" viewBox="0 0 24 24" fill="none" xmlns="http://www.w3.org/2000/svg">
<path d="M8.11523 20.9824C7.95117 20.9824 7.80762 20.9238 7.68457 20.8066C7.56152 20.6895 7.5 20.5488 7.5 20.3848C7.5 20.2207 7.55859 20.0801 7.67578 19.9629L15.709 11.9297L7.79883 4.03711C7.72852 3.95508 7.67871 3.86133 7.64941 3.75586C7.62012 3.65039 7.62012 3.54785 7.64941 3.44824C7.67871 3.34863 7.72852 3.25781 7.79883 3.17578C7.91602 3.05859 8.05957 3 8.22949 3C8.39941 3 8.54297 3.05859 8.66016 3.17578L16.9746 11.5078C17.0332 11.5664 17.0771 11.6338 17.1064 11.71C17.1357 11.7861 17.1504 11.8623 17.1504 11.9385C17.1504 12.0146 17.1357 12.0879 17.1064 12.1582C17.0771 12.2285 17.0332 12.293 16.9746 12.3516L8.53711 20.8066C8.47852 20.8652 8.41113 20.9092 8.33496 20.9385C8.25879 20.9678 8.18555 20.9824 8.11523 20.9824Z" fill="white"/>
</svg>
