<svg width="16" height="10" viewBox="0 0 16 10" fill="none" xmlns="http://www.w3.org/2000/svg">
<path d="M0.172852 1.29642C0.172852 1.15058 0.224611 1.02558 0.328131 0.921417C0.431651 0.817251 0.555874 0.765167 0.700802 0.765167C0.845729 0.765167 0.969953 0.817251 1.07347 0.921417L8.09211 7.98392L15.002 1.03079C15.1056 0.926626 15.2298 0.874542 15.3747 0.874542C15.5196 0.874542 15.6439 0.926626 15.7474 1.03079C15.8509 1.13496 15.9027 1.25996 15.9027 1.40579C15.9027 1.55163 15.8509 1.67663 15.7474 1.78079L8.46478 9.10892C8.36126 9.21308 8.23703 9.26517 8.09211 9.26517C7.94718 9.26517 7.82296 9.21308 7.71944 9.10892L0.328131 1.68704C0.307427 1.66621 0.289311 1.64277 0.273783 1.61673C0.258255 1.59069 0.245315 1.56465 0.234963 1.5386L0.203907 1.46048L0.180616 1.38235L0.172852 1.29642Z" fill="#044B89"/>
</svg>
