<svg width="32" height="32" viewBox="0 0 32 32" fill="none" xmlns="http://www.w3.org/2000/svg">
<rect width="28" height="28" rx="14" transform="matrix(-1 0 0 1 30 2)" fill="white"/>
<path d="M16 30.0312C14.4792 30.0312 13.0052 29.7969 11.5781 29.3281C10.151 28.8594 8.86458 28.1875 7.71875 27.3125C6.57292 26.4375 5.56771 25.4271 4.70312 24.2812C3.83854 23.1354 3.17188 21.849 2.70312 20.4219C2.23438 18.9948 2 17.5208 2 16C2 14.1042 2.36979 12.2917 3.10938 10.5625C3.84896 8.83333 4.84375 7.34375 6.09375 6.09375C7.34375 4.84375 8.83333 3.84896 10.5625 3.10938C12.2917 2.36979 14.1042 2 16 2C17.8958 2 19.7083 2.36979 21.4375 3.10938C23.1667 3.84896 24.6562 4.84375 25.9062 6.09375C27.1562 7.34375 28.151 8.83333 28.8906 10.5625C29.6302 12.2917 30 14.1042 30 16C30 17.8958 29.6302 19.7083 28.8906 21.4375C28.151 23.1667 27.1562 24.6615 25.9062 25.9219C24.6562 27.1823 23.1667 28.1823 21.4375 28.9219C19.7083 29.6615 17.8958 30.0312 16 30.0312ZM16.6406 9.95312C16.4427 10.151 16.3438 10.3906 16.3438 10.6719C16.3438 10.9531 16.4375 11.1875 16.625 11.375L20.25 15H9C8.70833 15 8.46875 15.0938 8.28125 15.2812C8.09375 15.4688 8 15.7031 8 15.9844C8 16.2656 8.09375 16.5052 8.28125 16.7031C8.46875 16.901 8.70833 17 9 17H20.3125L16.625 20.6562C16.5417 20.7604 16.474 20.875 16.4219 21C16.3698 21.125 16.3438 21.25 16.3438 21.375C16.3438 21.5 16.3698 21.625 16.4219 21.75C16.474 21.875 16.5469 21.9844 16.6406 22.0781C16.7344 22.1719 16.8438 22.2448 16.9688 22.2969C17.0938 22.349 17.2188 22.375 17.3438 22.375C17.6146 22.375 17.8542 22.2812 18.0625 22.0938L23.9688 16.0312L18.0625 9.96875C17.8542 9.76042 17.6146 9.65625 17.3438 9.65625C17.0729 9.65625 16.8385 9.75521 16.6406 9.95312Z" fill="#E23E34"/>
</svg>
