<svg width="16" height="16" viewBox="0 0 16 16" fill="none" xmlns="http://www.w3.org/2000/svg">
<path d="M15 16H10C9.71875 16 9.48177 15.9036 9.28906 15.7109C9.09635 15.5182 9 15.2812 9 15V10C9 9.71875 9.09635 9.48177 9.28906 9.28906C9.48177 9.09635 9.71875 9 10 9H15C15.2812 9 15.5182 9.09635 15.7109 9.28906C15.9036 9.48177 16 9.71875 16 10V15C16 15.2812 15.9036 15.5182 15.7109 15.7109C15.5182 15.9036 15.2812 16 15 16ZM15 10H10V15H15V10ZM15 7H10C9.71875 7 9.48177 6.90365 9.28906 6.71094C9.09635 6.51823 9 6.28125 9 6V1C9 0.71875 9.09635 0.481771 9.28906 0.289062C9.48177 0.0963542 9.71875 0 10 0H15C15.2812 0 15.5182 0.0963542 15.7109 0.289062C15.9036 0.481771 16 0.71875 16 1V6C16 6.28125 15.9036 6.51823 15.7109 6.71094C15.5182 6.90365 15.2812 7 15 7ZM15 1H10V6H15V1ZM6 16H1C0.71875 16 0.481771 15.9036 0.289062 15.7109C0.0963542 15.5182 0 15.2812 0 15V10C0 9.71875 0.0963542 9.48177 0.289062 9.28906C0.481771 9.09635 0.71875 9 1 9H6C6.28125 9 6.51823 9.09635 6.71094 9.28906C6.90365 9.48177 7 9.71875 7 10V15C7 15.2812 6.90365 15.5182 6.71094 15.7109C6.51823 15.9036 6.28125 16 6 16ZM6 10H1V15H6V10ZM6 7H1C0.71875 7 0.481771 6.90365 0.289062 6.71094C0.0963542 6.51823 0 6.28125 0 6V1C0 0.71875 0.0963542 0.481771 0.289062 0.289062C0.481771 0.0963542 0.71875 0 1 0H6C6.28125 0 6.51823 0.0963542 6.71094 0.289062C6.90365 0.481771 7 0.71875 7 1V6C7 6.28125 6.90365 6.51823 6.71094 6.71094C6.51823 6.90365 6.28125 7 6 7ZM6 1H1V6H6V1Z" fill="#474747"/>
</svg>
