<svg width="16" height="10" viewBox="0 0 16 10" fill="none" xmlns="http://www.w3.org/2000/svg">
<path d="M0.17334 1.29639C0.17334 1.15055 0.2251 1.02555 0.328619 0.921387C0.432139 0.81722 0.556363 0.765137 0.70129 0.765137C0.846218 0.765137 0.970441 0.81722 1.07396 0.921387L8.0926 7.98389L15.0025 1.03076C15.1061 0.926595 15.2303 0.874512 15.3752 0.874512C15.5201 0.874512 15.6444 0.926595 15.7479 1.03076C15.8514 1.13493 15.9032 1.25993 15.9032 1.40576C15.9032 1.5516 15.8514 1.6766 15.7479 1.78076L8.46527 9.10889C8.36175 9.21305 8.23752 9.26514 8.0926 9.26514C7.94767 9.26514 7.82344 9.21305 7.71992 9.10889L0.328619 1.68701C0.307915 1.66618 0.289799 1.64274 0.274272 1.6167C0.258744 1.59066 0.245804 1.56462 0.235452 1.53857L0.204396 1.46045L0.181104 1.38232L0.17334 1.29639Z" fill="#626262"/>
</svg>
