<svg width="28" height="29" viewBox="0 0 28 29" fill="none" xmlns="http://www.w3.org/2000/svg">
<path d="M14 28.0312C15.5208 28.0312 16.9948 27.7969 18.4219 27.3281C19.849 26.8594 21.1354 26.1875 22.2812 25.3125C23.4271 24.4375 24.4323 23.4271 25.2969 22.2812C26.1615 21.1354 26.8281 19.849 27.2969 18.4219C27.7656 16.9948 28 15.5208 28 14C28 12.1042 27.6302 10.2917 26.8906 8.5625C26.151 6.83333 25.1562 5.34375 23.9062 4.09375C22.6562 2.84375 21.1667 1.84896 19.4375 1.10938C17.7083 0.369792 15.8958 0 14 0C12.1042 0 10.2917 0.369792 8.5625 1.10938C6.83333 1.84896 5.34375 2.84375 4.09375 4.09375C2.84375 5.34375 1.84896 6.83333 1.10938 8.5625C0.369791 10.2917 0 12.1042 0 14C0 15.8958 0.369791 17.7083 1.10938 19.4375C1.84896 21.1667 2.84375 22.6615 4.09375 23.9219C5.34375 25.1823 6.83333 26.1823 8.5625 26.9219C10.2917 27.6615 12.1042 28.0312 14 28.0312ZM13.3594 7.95312C13.5573 8.15104 13.6562 8.39062 13.6562 8.67188C13.6562 8.95312 13.5625 9.1875 13.375 9.375L9.75 13H21C21.2917 13 21.5312 13.0938 21.7188 13.2812C21.9062 13.4688 22 13.7031 22 13.9844C22 14.2656 21.9062 14.5052 21.7188 14.7031C21.5312 14.901 21.2917 15 21 15H9.6875L13.375 18.6562C13.4583 18.7604 13.526 18.875 13.5781 19C13.6302 19.125 13.6562 19.25 13.6562 19.375C13.6562 19.5 13.6302 19.625 13.5781 19.75C13.526 19.875 13.4531 19.9844 13.3594 20.0781C13.2656 20.1719 13.1562 20.2448 13.0312 20.2969C12.9062 20.349 12.7812 20.375 12.6562 20.375C12.3854 20.375 12.1458 20.2812 11.9375 20.0938L6.03125 14.0312L11.9375 7.96875C12.1458 7.76042 12.3854 7.65625 12.6562 7.65625C12.9271 7.65625 13.1615 7.75521 13.3594 7.95312Z" fill="#044B89"/>
</svg>
