<svg width="24" height="24" viewBox="0 0 24 24" fill="none" xmlns="http://www.w3.org/2000/svg">
<path d="M15.8848 20.9824C16.0488 20.9824 16.1924 20.9238 16.3154 20.8066C16.4385 20.6895 16.5 20.5488 16.5 20.3848C16.5 20.2207 16.4414 20.0801 16.3242 19.9629L8.29102 11.9297L16.2012 4.03711C16.2715 3.95508 16.3213 3.86133 16.3506 3.75586C16.3799 3.65039 16.3799 3.54785 16.3506 3.44824C16.3213 3.34863 16.2715 3.25781 16.2012 3.17578C16.084 3.05859 15.9404 3 15.7705 3C15.6006 3 15.457 3.05859 15.3398 3.17578L7.02539 11.5078C6.9668 11.5664 6.92285 11.6338 6.89355 11.71C6.86426 11.7861 6.84961 11.8623 6.84961 11.9385C6.84961 12.0146 6.86426 12.0879 6.89355 12.1582C6.92285 12.2285 6.9668 12.293 7.02539 12.3516L15.4629 20.8066C15.5215 20.8652 15.5889 20.9092 15.665 20.9385C15.7412 20.9678 15.8145 20.9824 15.8848 20.9824Z" fill="white"/>
</svg>
