<svg width="24" height="24" viewBox="0 0 24 24" fill="none" xmlns="http://www.w3.org/2000/svg">
<path d="M23.3915 22.7109L16.2454 15.375C17.67 13.6406 18.3823 11.6406 18.3823 9.375C18.3823 7.67188 17.9726 6.10156 17.153 4.66406C16.3335 3.22656 15.2152 2.08984 13.7983 1.25391C12.3813 0.417969 10.8418 0 9.17969 0C7.51761 0 5.98192 0.417969 4.57261 1.25391C3.1633 2.08984 2.04887 3.22656 1.22932 4.66406C0.409773 6.10156 0 7.67188 0 9.375C0 11.0781 0.409773 12.6484 1.22932 14.0859C2.04887 15.5234 3.1633 16.6602 4.57261 17.4961C5.98192 18.332 7.52144 18.75 9.19117 18.75C11.4736 18.75 13.4804 17.9844 15.2114 16.4531L22.3346 23.7656C22.4877 23.9219 22.6639 24 22.863 24C23.0622 24 23.2345 23.9258 23.3801 23.7773C23.5256 23.6289 23.5983 23.4492 23.5983 23.2383C23.5983 23.0273 23.5294 22.8516 23.3915 22.7109ZM9.19117 17.2734C7.78186 17.2734 6.48361 16.918 5.29641 16.207C4.10922 15.4961 3.17096 14.5352 2.48162 13.3242C1.79228 12.1133 1.44761 10.7969 1.44761 9.375C1.44761 7.95312 1.79228 6.63672 2.48162 5.42578C3.17096 4.21484 4.10922 3.25391 5.29641 2.54297C6.48361 1.83203 7.77803 1.47656 9.17969 1.47656C10.5813 1.47656 11.8758 1.83203 13.063 2.54297C14.2502 3.25391 15.1884 4.21484 15.8778 5.42578C16.5671 6.63672 16.9118 7.95312 16.9118 9.375C16.9118 9.98438 16.8428 10.5859 16.705 11.1797C16.5671 11.7734 16.3718 12.3281 16.119 12.8438C15.8663 13.3594 15.5637 13.8477 15.2114 14.3086C14.8591 14.7695 14.4608 15.1797 14.0165 15.5391C13.5723 15.8984 13.0974 16.207 12.5919 16.4648C12.0864 16.7227 11.5426 16.9219 10.9605 17.0625C10.3784 17.2031 9.7886 17.2734 9.19117 17.2734Z" fill="#044B89"/>
</svg>
