<svg width="24" height="13" viewBox="0 0 24 13" fill="none" xmlns="http://www.w3.org/2000/svg">
<path d="M0 0.8125C0 0.589461 0.0789734 0.398284 0.23692 0.238971C0.394867 0.0796569 0.584403 0 0.805528 0C1.02665 0 1.21619 0.0796569 1.37414 0.238971L12.0829 11.0404L22.6259 0.40625C22.7838 0.246936 22.9733 0.167279 23.1945 0.167279C23.4156 0.167279 23.6051 0.246936 23.7631 0.40625C23.921 0.565564 24 0.75674 24 0.979779C24 1.20282 23.921 1.394 23.7631 1.55331L12.6515 12.761C12.4936 12.9203 12.304 13 12.0829 13C11.8618 13 11.6723 12.9203 11.5143 12.761L0.23692 1.40993C0.205331 1.37806 0.17769 1.34222 0.153998 1.30239C0.130306 1.26256 0.110563 1.22273 0.094768 1.1829L0.047384 1.06342L0.011846 0.943934L0 0.8125Z" fill="#044B89"/>
</svg>
