<svg width="24" height="13" viewBox="0 0 24 13" fill="none" xmlns="http://www.w3.org/2000/svg">
<path d="M0 12.1875C0 12.4105 0.0789734 12.6017 0.23692 12.761C0.394867 12.9203 0.584403 13 0.805528 13C1.02665 13 1.21619 12.9203 1.37414 12.761L12.0829 1.95956L22.6259 12.5938C22.7838 12.7531 22.9733 12.8327 23.1945 12.8327C23.4156 12.8327 23.6051 12.7531 23.7631 12.5938C23.921 12.4344 24 12.2433 24 12.0202C24 11.7972 23.921 11.606 23.7631 11.4467L12.6515 0.238971C12.4936 0.0796566 12.304 0 12.0829 0C11.8618 0 11.6723 0.0796566 11.5143 0.238971L0.23692 11.5901C0.205331 11.6219 0.17769 11.6578 0.153998 11.6976C0.130306 11.7374 0.110563 11.7773 0.094768 11.8171L0.047384 11.9366L0.011846 12.0561L0 12.1875Z" fill="#044B89"/>
</svg>
