<svg width="48" height="47" viewBox="0 0 48 47" fill="none" xmlns="http://www.w3.org/2000/svg">
<path d="M0 23.5C0 10.5213 10.7452 0 24 0C37.2548 0 48 10.5213 48 23.5C48 36.4787 37.2548 47 24 47C10.7452 47 0 36.4787 0 23.5Z" fill="#0077B5"/>
<path fill-rule="evenodd" clip-rule="evenodd" d="M17.3187 14.5139C17.3187 16.0503 16.1376 17.2797 14.2411 17.2797H14.2064C12.3804 17.2797 11.2 16.0503 11.2 14.5139C11.2 12.945 12.4164 11.75 14.277 11.75C16.1376 11.75 17.2834 12.945 17.3187 14.5139ZM16.9605 19.4637V35.465H11.5216V19.4637H16.9605ZM36.5751 35.465L36.5753 26.2904C36.5753 21.3755 33.8922 19.088 30.3131 19.088C27.4254 19.088 26.1325 20.6411 25.4106 21.7306V19.4642H19.9711C20.0427 20.9656 19.9711 35.4654 19.9711 35.4654H25.4106V26.529C25.4106 26.0508 25.4459 25.5737 25.5897 25.2313C25.9828 24.2759 26.8778 23.2868 28.3805 23.2868C30.3494 23.2868 31.1364 24.754 31.1364 26.9043V35.465H36.5751Z" fill="white"/>
</svg>
