<svg width="90" height="26" viewBox="0 0 90 26" fill="none" xmlns="http://www.w3.org/2000/svg">
<rect width="90" height="26" rx="13" fill="#F76739"/>
<path d="M18.6719 12.7578C18.6719 11.8828 18.8027 11.1484 19.0645 10.5547C19.2598 10.1172 19.5254 9.72461 19.8613 9.37695C20.2012 9.0293 20.5723 8.77148 20.9746 8.60352C21.5098 8.37695 22.127 8.26367 22.8262 8.26367C24.0918 8.26367 25.1035 8.65625 25.8613 9.44141C26.623 10.2266 27.0039 11.3184 27.0039 12.7168C27.0039 14.1035 26.627 15.1895 25.873 15.9746C25.1191 16.7559 24.1113 17.1465 22.8496 17.1465C21.5723 17.1465 20.5566 16.7578 19.8027 15.9805C19.0488 15.1992 18.6719 14.125 18.6719 12.7578ZM20.459 12.6992C20.459 13.6719 20.6836 14.4102 21.1328 14.9141C21.582 15.4141 22.1523 15.6641 22.8438 15.6641C23.5352 15.6641 24.1016 15.416 24.543 14.9199C24.9883 14.4199 25.2109 13.6719 25.2109 12.6758C25.2109 11.6914 24.9941 10.957 24.5605 10.4727C24.1309 9.98828 23.5586 9.74609 22.8438 9.74609C22.1289 9.74609 21.5527 9.99219 21.1152 10.4844C20.6777 10.9727 20.459 11.7109 20.459 12.6992ZM34.0117 17H32.3652V13.8242C32.3652 13.1523 32.3301 12.7188 32.2598 12.5234C32.1895 12.3242 32.0742 12.1699 31.9141 12.0605C31.7578 11.9512 31.5684 11.8965 31.3457 11.8965C31.0605 11.8965 30.8047 11.9746 30.5781 12.1309C30.3516 12.2871 30.1953 12.4941 30.1094 12.752C30.0273 13.0098 29.9863 13.4863 29.9863 14.1816V17H28.3398V10.7773H29.8691V11.6914C30.4121 10.9883 31.0957 10.6367 31.9199 10.6367C32.2832 10.6367 32.6152 10.7031 32.916 10.8359C33.2168 10.9648 33.4434 11.1309 33.5957 11.334C33.752 11.5371 33.8594 11.7676 33.918 12.0254C33.9805 12.2832 34.0117 12.6523 34.0117 13.1328V17ZM38.875 17.4102L40.7559 17.6387C40.7871 17.8574 40.8594 18.0078 40.9727 18.0898C41.1289 18.207 41.375 18.2656 41.7109 18.2656C42.1406 18.2656 42.4629 18.2012 42.6777 18.0723C42.8223 17.9863 42.9316 17.8477 43.0059 17.6562C43.0566 17.5195 43.082 17.2676 43.082 16.9004V15.9922C42.5898 16.6641 41.9688 17 41.2188 17C40.3828 17 39.7207 16.6465 39.2324 15.9395C38.8496 15.3809 38.6582 14.6855 38.6582 13.8535C38.6582 12.8105 38.9082 12.0137 39.4082 11.4629C39.9121 10.9121 40.5371 10.6367 41.2832 10.6367C42.0527 10.6367 42.6875 10.9746 43.1875 11.6504V10.7773H44.7285V16.3613C44.7285 17.0957 44.668 17.6445 44.5469 18.0078C44.4258 18.3711 44.2559 18.6562 44.0371 18.8633C43.8184 19.0703 43.5254 19.2324 43.1582 19.3496C42.7949 19.4668 42.334 19.5254 41.7754 19.5254C40.7207 19.5254 39.9727 19.3438 39.5312 18.9805C39.0898 18.6211 38.8691 18.1641 38.8691 17.6094C38.8691 17.5547 38.8711 17.4883 38.875 17.4102ZM40.3457 13.7598C40.3457 14.4199 40.4727 14.9043 40.7266 15.2129C40.9844 15.5176 41.3008 15.6699 41.6758 15.6699C42.0781 15.6699 42.418 15.5137 42.6953 15.2012C42.9727 14.8848 43.1113 14.418 43.1113 13.8008C43.1113 13.1562 42.9785 12.6777 42.7129 12.3652C42.4473 12.0527 42.1113 11.8965 41.7051 11.8965C41.3105 11.8965 40.9844 12.0508 40.7266 12.3594C40.4727 12.6641 40.3457 13.1309 40.3457 13.7598ZM45.9824 13.8008C45.9824 13.2539 46.1172 12.7246 46.3867 12.2129C46.6562 11.7012 47.0371 11.3105 47.5293 11.041C48.0254 10.7715 48.5781 10.6367 49.1875 10.6367C50.1289 10.6367 50.9004 10.9434 51.502 11.5566C52.1035 12.166 52.4043 12.9375 52.4043 13.8711C52.4043 14.8125 52.0996 15.5938 51.4902 16.2148C50.8848 16.832 50.1211 17.1406 49.1992 17.1406C48.6289 17.1406 48.084 17.0117 47.5645 16.7539C47.0488 16.4961 46.6562 16.1191 46.3867 15.623C46.1172 15.123 45.9824 14.5156 45.9824 13.8008ZM47.6699 13.8887C47.6699 14.5059 47.8164 14.9785 48.1094 15.3066C48.4023 15.6348 48.7637 15.7988 49.1934 15.7988C49.623 15.7988 49.9824 15.6348 50.2715 15.3066C50.5645 14.9785 50.7109 14.502 50.7109 13.877C50.7109 13.2676 50.5645 12.7988 50.2715 12.4707C49.9824 12.1426 49.623 11.9785 49.1934 11.9785C48.7637 11.9785 48.4023 12.1426 48.1094 12.4707C47.8164 12.7988 47.6699 13.2715 47.6699 13.8887ZM53.6992 9.93359V8.41016H55.3457V9.93359H53.6992ZM53.6992 17V10.7773H55.3457V17H53.6992ZM62.6992 17H61.0527V13.8242C61.0527 13.1523 61.0176 12.7188 60.9473 12.5234C60.877 12.3242 60.7617 12.1699 60.6016 12.0605C60.4453 11.9512 60.2559 11.8965 60.0332 11.8965C59.748 11.8965 59.4922 11.9746 59.2656 12.1309C59.0391 12.2871 58.8828 12.4941 58.7969 12.752C58.7148 13.0098 58.6738 13.4863 58.6738 14.1816V17H57.0273V10.7773H58.5566V11.6914C59.0996 10.9883 59.7832 10.6367 60.6074 10.6367C60.9707 10.6367 61.3027 10.7031 61.6035 10.8359C61.9043 10.9648 62.1309 11.1309 62.2832 11.334C62.4395 11.5371 62.5469 11.7676 62.6055 12.0254C62.668 12.2832 62.6992 12.6523 62.6992 13.1328V17ZM64.2227 17.4102L66.1035 17.6387C66.1348 17.8574 66.207 18.0078 66.3203 18.0898C66.4766 18.207 66.7227 18.2656 67.0586 18.2656C67.4883 18.2656 67.8105 18.2012 68.0254 18.0723C68.1699 17.9863 68.2793 17.8477 68.3535 17.6562C68.4043 17.5195 68.4297 17.2676 68.4297 16.9004V15.9922C67.9375 16.6641 67.3164 17 66.5664 17C65.7305 17 65.0684 16.6465 64.5801 15.9395C64.1973 15.3809 64.0059 14.6855 64.0059 13.8535C64.0059 12.8105 64.2559 12.0137 64.7559 11.4629C65.2598 10.9121 65.8848 10.6367 66.6309 10.6367C67.4004 10.6367 68.0352 10.9746 68.5352 11.6504V10.7773H70.0762V16.3613C70.0762 17.0957 70.0156 17.6445 69.8945 18.0078C69.7734 18.3711 69.6035 18.6562 69.3848 18.8633C69.166 19.0703 68.873 19.2324 68.5059 19.3496C68.1426 19.4668 67.6816 19.5254 67.123 19.5254C66.0684 19.5254 65.3203 19.3438 64.8789 18.9805C64.4375 18.6211 64.2168 18.1641 64.2168 17.6094C64.2168 17.5547 64.2188 17.4883 64.2227 17.4102ZM65.6934 13.7598C65.6934 14.4199 65.8203 14.9043 66.0742 15.2129C66.332 15.5176 66.6484 15.6699 67.0234 15.6699C67.4258 15.6699 67.7656 15.5137 68.043 15.2012C68.3203 14.8848 68.459 14.418 68.459 13.8008C68.459 13.1562 68.3262 12.6777 68.0605 12.3652C67.7949 12.0527 67.459 11.8965 67.0527 11.8965C66.6582 11.8965 66.332 12.0508 66.0742 12.3594C65.8203 12.6641 65.6934 13.1309 65.6934 13.7598Z" fill="white"/>
</svg>
