<svg width="80" height="80" viewBox="0 0 80 80" fill="none" xmlns="http://www.w3.org/2000/svg">
<circle cx="40" cy="40" r="40" fill="#F2F2F2"/>
<path d="M60 57.6562H52.9688V51.1551L45.9375 44.1238V41.0938H50.625V36.4062H60C60 34.7736 60 33.3636 60 31.7188H57.6562V34.0625H55.3125V31.7188H52.9688V34.0625H45.9375V31.7188H50.625V27.0312H60C60 25.3995 60 23.9755 60 22.3438H57.6562V24.6875H55.3125V22.3438H52.9688V24.6875H44.5087L43.9227 22.3438H45.9375V20H34.0625V22.3438H36.0773L35.4913 24.6875H27.0312V22.3438H24.6875V24.6875H22.3438V22.3438H20V27.0312H29.375V31.7188H34.0625V34.0625H27.0312V31.7188H24.6875V34.0625H22.3438V31.7188H20V36.4062H29.375V41.0938H34.0625V44.1238L27.0312 51.1551V57.6562H20V60H60V57.6562ZM48.2812 36.4062V38.75H45.9375V36.4062H48.2812ZM48.2812 27.0312V29.375H45.6805L45.0946 27.0312H48.2812ZM44.2801 45.7812L48.9676 50.4688H41.1719V45.7812H44.2801ZM38.493 22.3438H41.507L42.0929 24.6875H37.9071L38.493 22.3438ZM37.3212 27.0312H42.6788L43.2648 29.375H36.7352L37.3212 27.0312ZM36.4062 31.7188H43.5938V34.0625H36.4062V31.7188ZM36.4062 36.4062H43.5938V38.75H36.4062V36.4062ZM36.4062 41.0938H43.5938V43.4375H36.4062V41.0938ZM31.7188 29.375V27.0312H34.9054L34.3195 29.375H31.7188ZM31.7188 38.75V36.4062H34.0625V38.75H31.7188ZM35.7199 45.7812H38.8281V50.4688H31.0324L35.7199 45.7812ZM31.7188 57.6562H29.375V52.8125H31.7188V57.6562ZM45.9375 57.6562C44.1772 57.6562 35.6339 57.6562 34.0625 57.6562V52.8125H45.9375V57.6562ZM50.625 57.6562H48.2812V52.8125H50.625V57.6562Z" fill="#044B89"/>
</svg>
