<svg width="48" height="47" viewBox="0 0 48 47" fill="none" xmlns="http://www.w3.org/2000/svg">
<path d="M0 23.5C0 10.5213 10.7452 0 24 0C37.2548 0 48 10.5213 48 23.5C48 36.4787 37.2548 47 24 47C10.7452 47 0 36.4787 0 23.5Z" fill="#55ACEE"/>
<path d="M23.2812 19.1011L23.3316 19.9142L22.4922 19.8147C19.4369 19.433 16.7677 18.1386 14.5013 15.9646L13.3934 14.886L13.108 15.6825C12.5036 17.4582 12.8897 19.3334 14.1488 20.5946C14.8203 21.2916 14.6692 21.3912 13.5109 20.9763C13.108 20.8435 12.7554 20.744 12.7219 20.7938C12.6044 20.9099 13.0073 22.4201 13.3262 23.0175C13.7627 23.8472 14.6524 24.6604 15.6261 25.1416L16.4487 25.5233L15.475 25.5399C14.5349 25.5399 14.5013 25.5565 14.6021 25.905C14.9378 26.9837 16.264 28.1287 17.7413 28.6266L18.7822 28.9751L17.8756 29.5061C16.5326 30.2695 14.9546 30.701 13.3766 30.7341C12.6211 30.7507 12 30.8171 12 30.8669C12 31.0328 14.0481 31.9622 15.24 32.3273C18.8157 33.4059 23.063 32.9413 26.2526 31.0992C28.5189 29.7882 30.7852 27.1828 31.8428 24.6604C32.4136 23.3162 32.9844 20.8601 32.9844 19.6819C32.9844 18.9185 33.0347 18.819 33.9748 17.9062C34.5288 17.3752 35.0492 16.7944 35.15 16.6284C35.3178 16.3131 35.3011 16.3131 34.4449 16.5952C33.018 17.0931 32.8165 17.0267 33.5216 16.2799C34.042 15.7489 34.6631 14.7864 34.6631 14.5043C34.6631 14.4545 34.4113 14.5375 34.1259 14.6868C33.8238 14.8528 33.1523 15.1017 32.6486 15.251L31.7421 15.5332L30.9195 14.9855C30.4663 14.6868 29.8283 14.3549 29.4926 14.2553C28.6364 14.023 27.327 14.0562 26.5548 14.3217C24.4563 15.0685 23.1301 16.9935 23.2812 19.1011Z" fill="white"/>
</svg>
