<svg width="156" height="156" viewBox="0 0 156 156" fill="none" xmlns="http://www.w3.org/2000/svg">
<circle opacity="0.08" cx="78" cy="78" r="78" fill="#6F4595"/>
<path d="M117 58.5H39V85.9219H44.3654L40.2182 90.0691L62.8406 112.691L66.072 109.459L72.5353 115.922L78.0006 110.458C81.1314 113.588 82.174 114.631 82.8327 115.289C84.0842 114.039 86.6675 111.45 89.2865 108.848L93.1296 112.691C94.2187 111.602 114.664 91.1569 115.751 90.0691L111.605 85.9219H117V58.5ZM46.6821 90.0691L50.8287 85.9219H53.4453C53.9214 86.3962 54.5789 87.0514 55.3716 87.8428L49.9134 93.3004L46.6821 90.0691ZM53.1454 96.5324L58.6059 91.0718C59.6122 92.0769 60.7007 93.1647 61.8391 94.302L56.3773 99.7637L53.1454 96.5324ZM62.8406 106.227L59.6087 102.996L65.0716 97.5327C66.144 98.6039 67.2288 99.6888 68.3042 100.763L62.8406 106.227ZM72.5353 109.459L69.3039 106.227L71.5361 103.995C72.6686 105.126 73.7564 106.214 74.7686 107.226L72.5353 109.459ZM96.3372 83.5808L93.1052 86.8127L102.825 96.5324L99.5929 99.7637L89.8739 90.0441L86.6419 93.276C87.8268 94.4609 95.1178 101.752 96.3616 102.996L93.1296 106.227L83.4106 96.5074L80.1786 99.7393L86.0552 105.616C85.278 106.388 84.3615 107.299 82.8327 108.826C52.101 78.097 56.7076 82.7292 55.3282 81.3516H43.5703V63.0703H66.5742V85.9219H68.8594C74.8127 85.9219 79.7151 81.3438 80.237 75.5238C81.5932 76.3212 83.1714 76.7812 84.8555 76.7812H96.0004L109.288 90.0691L106.056 93.3004C104.786 92.0293 97.4589 84.7025 96.3372 83.5808ZM112.43 81.3516H107.035L97.894 72.2109H84.8555C82.3353 72.2109 80.2852 70.1608 80.2852 67.6406H75.7148V74.4961C75.7148 77.4751 73.8046 80.0168 71.1445 80.96V63.0703H112.43V81.3516Z" fill="#6F4595"/>
<path d="M75.7148 40.2188H80.2852V53.9297H75.7148V40.2188Z" fill="#6F4595"/>
<path d="M94.6655 43.1722L97.8975 46.4042L88.7569 55.5448L85.5249 52.3129L94.6655 43.1722Z" fill="#6F4595"/>
<path d="M61.3344 43.1728L70.475 52.3134L67.2437 55.5454L58.103 46.4047L61.3344 43.1728Z" fill="#6F4595"/>
</svg>
