<svg width="156" height="156" viewBox="0 0 156 156" fill="none" xmlns="http://www.w3.org/2000/svg">
<circle opacity="0.08" cx="78" cy="78" r="78" fill="#FA8940"/>
<path d="M112.277 87.293C112.277 80.9249 108.536 75.4143 103.137 72.8423V39H43.7227V112.43H84.8555V117L96.2812 111.287L107.707 117V98.4754C110.533 95.5892 112.277 91.6413 112.277 87.293ZM107.707 87.293C107.707 93.5932 102.581 98.7188 96.2812 98.7188C89.981 98.7188 84.8555 93.5932 84.8555 87.293C84.8555 80.9927 89.981 75.8672 96.2812 75.8672C102.581 75.8672 107.707 80.9927 107.707 87.293ZM89.4258 72.8423C84.0265 75.4143 80.2852 80.9249 80.2852 87.293C80.2852 91.6413 82.03 95.5892 84.8555 98.4754V98.7188H61.6123C60.9226 96.7734 59.379 95.2297 57.4336 94.54V56.8897C59.379 56.2 60.9226 54.6563 61.6123 52.7109H85.247C85.9368 54.6563 87.481 56.2 89.4258 56.8897V72.8423ZM48.293 107.859V43.5703H98.5664V71.4605C97.8196 71.3534 97.0573 71.2969 96.2812 71.2969C95.5052 71.2969 94.7429 71.3534 93.9961 71.4605V52.7109H91.7109C90.4511 52.7109 89.4258 51.6856 89.4258 50.4258V48.1406H57.4336V50.4258C57.4336 51.6856 56.4082 52.7109 55.1484 52.7109H52.8633V98.7188H55.1484C56.4082 98.7188 57.4336 99.7441 57.4336 101.004V103.289H84.8555V107.859H48.293ZM89.4258 101.744C90.8469 102.421 92.3828 102.893 93.9961 103.125V107.32L89.4258 109.605V101.744ZM98.5664 107.32V103.125C100.18 102.893 101.716 102.42 103.137 101.744V109.605L98.5664 107.32Z" fill="#FA8940"/>
<path d="M89.4258 87.293C89.4258 91.073 92.5012 94.1484 96.2812 94.1484C100.061 94.1484 103.137 91.073 103.137 87.293C103.137 83.5129 100.061 80.4375 96.2812 80.4375C92.5012 80.4375 89.4258 83.5129 89.4258 87.293ZM98.5664 87.293C98.5664 88.5528 97.5411 89.5781 96.2812 89.5781C95.0214 89.5781 93.9961 88.5528 93.9961 87.293C93.9961 86.0332 95.0214 85.0078 96.2812 85.0078C97.5411 85.0078 98.5664 86.0332 98.5664 87.293Z" fill="#FA8940"/>
<path d="M62.0039 62.1562H84.8555V66.7266H62.0039V62.1562Z" fill="#FA8940"/>
<path d="M66.5742 71.2969H80.2852V75.8672H66.5742V71.2969Z" fill="#FA8940"/>
</svg>
