<svg width="156" height="156" viewBox="0 0 156 156" fill="none" xmlns="http://www.w3.org/2000/svg">
<circle cx="78" cy="78" r="78" fill="#008F70" fill-opacity="0.08"/>
<g clip-path="url(#clip0)">
<path d="M57.5949 75.8666H39L39.3404 73.1286C41.5375 55.4543 55.3906 41.5458 73.1292 39.3404L75.8672 39V57.5949L73.9183 57.9936C65.8839 59.6331 59.6331 65.8833 57.9936 73.9171L57.5949 75.8666ZM44.2606 71.2963H53.9261C56.2702 62.8549 62.8543 56.2708 71.2969 53.9261V44.2606C57.5931 46.9635 46.9689 57.5663 44.2606 71.2963Z" fill="#008F70"/>
<path d="M78 116.999C58.3738 116.999 41.7541 102.327 39.3404 82.8703L39 80.1323H57.5996L57.9948 82.0871C59.9032 91.5479 68.3167 98.4135 78 98.4135C81.9841 98.4135 85.8891 97.2525 89.2919 95.056L90.9462 93.9884L104.07 107.113L101.891 108.808C95.0006 114.167 86.7395 116.999 78 116.999ZM44.2588 84.7026C47.3926 100.671 61.4915 112.429 78 112.429C84.8983 112.429 91.4598 110.43 97.1185 106.625L90.2821 99.7876C86.5045 101.883 82.293 102.984 78 102.984C66.7414 102.984 56.8843 95.3952 53.9237 84.7026H44.2588Z" fill="#008F70"/>
<path d="M107.113 104.07L93.989 90.9456L95.056 89.2919C97.253 85.8885 98.4141 81.9841 98.4141 77.9994C98.4141 68.3167 91.5479 59.9032 82.0883 57.9948L80.1328 57.5996V39L82.8708 39.3404C102.327 41.7541 117 58.3738 117 77.9994C117 86.7389 114.167 95.0006 108.809 101.891L107.113 104.07ZM99.7881 90.2815L106.625 97.1185C110.43 91.4592 112.43 84.8983 112.43 77.9994C112.43 61.4915 100.67 47.3926 84.7031 44.2588V53.9231C95.3946 56.8837 102.984 66.7408 102.984 77.9994C102.984 82.2924 101.884 86.5045 99.7881 90.2815Z" fill="#008F70"/>
<path d="M66.5742 66.5737H80.2852V71.144H66.5742V66.5737Z" fill="#008F70"/>
<path d="M66.5742 75.7143H80.2852V80.2846H66.5742V75.7143Z" fill="#008F70"/>
<path d="M84.8555 66.5737H89.4258V71.144H84.8555V66.5737Z" fill="#008F70"/>
<path d="M84.8555 75.7143H89.4258V80.2846H84.8555V75.7143Z" fill="#008F70"/>
<path d="M66.5742 84.8549H80.2852V89.4252H66.5742V84.8549Z" fill="#008F70"/>
<path d="M84.8555 84.8549H89.4258V89.4252H84.8555V84.8549Z" fill="#008F70"/>
</g>
<defs>
<clipPath id="clip0">
<rect width="78" height="78" fill="white" transform="translate(39 39)"/>
</clipPath>
</defs>
</svg>
