<svg width="156" height="159" viewBox="0 0 156 159" fill="none" xmlns="http://www.w3.org/2000/svg">
<ellipse opacity="0.08" cx="78" cy="79.7039" rx="78" ry="78.7771" fill="#F43B3A"/>
<path d="M69.0064 103.899C69.0064 98.8905 73.0258 94.8159 77.965 94.8159C82.905 94.8159 86.9244 98.8905 86.9244 103.899C86.9244 108.908 82.905 112.983 77.965 112.983C73.0258 112.983 69.0064 108.908 69.0064 103.899ZM32.9727 112.983V46.371H122.958V112.983H89.9103V112.972C91.213 111.214 92.1476 109.159 92.5959 106.927H111.013V103.899C111.013 102.23 112.353 100.872 113.999 100.872H116.985V58.4818H113.999C112.353 58.4818 111.013 57.1239 111.013 55.4543V52.4268H44.9172V55.4543C44.9172 57.1239 43.578 58.4818 41.9313 58.4818H38.9453V100.872H41.9313C43.578 100.872 44.9172 102.23 44.9172 103.899V106.927H63.3341C63.7831 109.159 64.7177 111.214 66.0204 112.972V112.983H32.9727Z" fill="#F43B3A"/>
<path d="M73.7417 103.898L77.965 99.6156L82.1875 103.898L77.965 108.179L73.7417 103.898Z" fill="#F43B3A"/>
<path d="M56.8625 64.5377H99.0681V70.5935H56.8625V64.5377Z" fill="#F43B3A"/>
<path d="M50.8899 76.6493H105.041V82.7043H50.8899V76.6493Z" fill="#F43B3A"/>
</svg>
