<svg width="48" height="47" viewBox="0 0 48 47" fill="none" xmlns="http://www.w3.org/2000/svg">
<path d="M0 23.5C0 10.5213 10.7452 0 24 0C37.2548 0 48 10.5213 48 23.5C48 36.4787 37.2548 47 24 47C10.7452 47 0 36.4787 0 23.5Z" fill="#FF0000"/>
<path d="M36.265 17.6967C35.9706 16.5892 35.1031 15.7172 34.0015 15.4212C32.0053 14.8833 24 14.8833 24 14.8833C24 14.8833 15.9946 14.8833 13.9982 15.4212C12.8967 15.7172 12.0292 16.5892 11.7348 17.6967C11.2 19.7038 11.2 23.8916 11.2 23.8916C11.2 23.8916 11.2 28.0793 11.7348 30.0866C12.0292 31.194 12.8967 32.0661 13.9982 32.3622C15.9946 32.9 24 32.9 24 32.9C24 32.9 32.0053 32.9 34.0015 32.3622C35.1031 32.0661 35.9706 31.194 36.265 30.0866C36.7999 28.0793 36.7999 23.8916 36.7999 23.8916C36.7999 23.8916 36.7999 19.7038 36.265 17.6967Z" fill="white"/>
<path d="M21.6001 28.2V20.3667L28.0001 24.2835L21.6001 28.2Z" fill="#FF0000"/>
</svg>
